HIERARCHY
ROOT Hips
{
  OFFSET -32.5998 29.0326 120.673
  CHANNELS 6 Xposition Yposition Zposition Zrotation Xrotation Yrotation
  JOINT LeftUpLeg
  {
    OFFSET 8.64259 1.95398 -2.38835
    CHANNELS 3 Zrotation Xrotation Yrotation
    JOINT LeftLeg
    {
      OFFSET 43.7702 0 0
      CHANNELS 3 Zrotation Xrotation Yrotation
      JOINT LeftFoot
      {
        OFFSET 40.6238 0 0
        CHANNELS 3 Zrotation Xrotation Yrotation
        JOINT LeftToeBase
        {
          OFFSET 12.7242 0 0
          CHANNELS 3 Zrotation Xrotation Yrotation
          End Site
          {
            OFFSET 0 0 0
          }
        }
      }
    }
  }
  JOINT RightUpLeg
  {
    OFFSET -8.2249 1.95398 -2.59336
    CHANNELS 3 Zrotation Xrotation Yrotation
    JOINT RightLeg
    {
      OFFSET 43.5653 0 0
      CHANNELS 3 Zrotation Xrotation Yrotation
      JOINT RightFoot
      {
        OFFSET 40.6238 0 0
        CHANNELS 3 Zrotation Xrotation Yrotation
        JOINT RightToeBase
        {
          OFFSET 12.7242 0 0
          CHANNELS 3 Zrotation Xrotation Yrotation
          End Site
          {
            OFFSET 0 0 0
          }
        }
      }
    }
  }
  JOINT Spine
  {
    OFFSET 0.165834 0.87714 6.61349
    CHANNELS 3 Zrotation Xrotation Yrotation
    JOINT Spine1
    {
      OFFSET 7.38963 1.71661e-005 0
      CHANNELS 3 Zrotation Xrotation Yrotation
      JOINT Spine2
      {
        OFFSET 11.9445 1.14441e-005 0
        CHANNELS 3 Zrotation Xrotation Yrotation
        JOINT Spine3
        {
          OFFSET 14.7254 4.19617e-005 0
          CHANNELS 3 Zrotation Xrotation Yrotation
          JOINT Spine4
          {
            OFFSET 10.9679 0 0
            CHANNELS 3 Zrotation Xrotation Yrotation
            JOINT RightShoulder
            {
              OFFSET 2.46616 -1.6653 3.69651
              CHANNELS 3 Zrotation Xrotation Yrotation
              JOINT RightArm
              {
                OFFSET 13.0012 0 0
                CHANNELS 3 Zrotation Xrotation Yrotation
                JOINT RightForeArm
                {
                  OFFSET 28.7848 1.62311e-005 0
                  CHANNELS 3 Zrotation Xrotation Yrotation
                  JOINT RightHand
                  {
                    OFFSET 26.5688 1.62095e-005 0
                    CHANNELS 3 Zrotation Xrotation Yrotation
                    End Site
                    {
                      OFFSET 0 0 0
                    }
                  }
                }
              }
            }
            JOINT LeftShoulder
            {
              OFFSET 2.38034 -1.29275 -3.7523
              CHANNELS 3 Zrotation Xrotation Yrotation
              JOINT LeftArm
              {
                OFFSET 16.3182 6.07031e-005 0
                CHANNELS 3 Zrotation Xrotation Yrotation
                JOINT LeftForeArm
                {
                  OFFSET 27.0901 0 0
                  CHANNELS 3 Zrotation Xrotation Yrotation
                  JOINT LeftHand
                  {
                    OFFSET 24.5451 1.51738e-005 0
                    CHANNELS 3 Zrotation Xrotation Yrotation
                    End Site
                    {
                      OFFSET 0 0 0
                    }
                  }
                }
              }
            }
            JOINT Neck
            {
              OFFSET 5.0226 -0.0266342 0
              CHANNELS 3 Zrotation Xrotation Yrotation
              JOINT Head
              {
                OFFSET 6.69364 2.86102e-005 0
                CHANNELS 3 Zrotation Xrotation Yrotation
                End Site
                {
                  OFFSET 0 0 0
                }
              }
            }
          }
        }
      }
    }
  }
}
MOTION
Frames:	12
Frame Time:	0.0416667
31.3017 100.928 16.7011 6.09479 -86.5649 6.92831 -173.822 8.40375 93.5817 -11.6443 1.69788 -0.0232279 68.0083 1.32507 -5.46859 19.0009 -7.97183 7.16385 174.677 3.40683 92.1064 -4.55121 -0.0492795 1.65033 64.2443 -1.41102 1.64522 26.1094 0.207749 3.69238 0.536055 5.97594 -89.7405 14.9209 1.18949 0.346108 3.25043 1.20357 0.293415 -19.2878 1.03047 0.687628 0.724816 1.03047 0.687631 102.51 24.5116 -76.3348 -12.255 30.0479 -56.4062 -12.8879 70.5113 -0.0207959 21.3474 -1.63025 -13.6124 -77.4321 17.6065 98.5876 22.5949 -39.0407 -73.5576 -178.151 -71.8098 179.985 -22.6451 -0.471628 -0.840312 38.251 -4.11286 -6.77921 -19.9025 -0.508335 -0.700638 
31.079 100.856 15.4616 5.18204 -85.7375 5.76011 -174.122 10.3283 93.2778 -12.3128 1.57784 -0.0591135 67.7822 1.12711 -5.43617 19.0003 -8.89011 8.81768 174.41 5.21577 91.9228 -4.93901 -0.0717521 2.08373 64.3287 -1.55814 1.18654 25.8228 0.280479 3.8632 0.535526 6.08147 -89.8406 14.7109 1.1389 0.155383 3.04041 1.14465 0.105095 -19.4981 1.03954 0.490521 0.514516 1.03955 0.490523 102.466 24.1978 -77.9332 -8.0569 33.7063 -55.0046 -13.8613 66.2612 -1.01044 19.5836 -1.60621 -14.0561 -77.9475 15.7078 95.4301 14.5334 -40.9189 -73.5207 -176.132 -80.2886 178.841 -22.0883 -0.348378 -2.16913 32.8042 -3.77707 -6.85967 -16.1411 -0.64679 0.0160556 
30.8438 100.833 14.3575 8.60989 -85.1843 8.83256 -174.195 11.8593 93.0274 -12.7916 1.74239 -0.345475 67.3567 1.27059 -5.20651 18.7209 -8.98014 8.70287 174.082 6.75451 91.552 -5.53623 0.38526 2.43405 64.1301 -1.34283 1.32038 26.953 -0.183647 3.84864 0.421822 6.22195 -89.9444 14.4304 0.862786 -0.0100219 2.75972 0.861503 -0.047989 -19.7776 0.825905 0.249766 0.235065 0.825897 0.249755 102.466 21.0893 -79.3018 4.72837 40.3154 -61.2287 -5.51649 54.6586 -14.1288 17.4362 -1.72344 -15.7349 -77.3825 7.7816 98.1131 -2.49398 -41.7911 -89.3694 -24.0005 -84.3428 -32.2642 -20.1348 -0.242791 -3.22385 24.5824 -3.47256 -6.94029 -11.1269 -0.885588 -0.0471355 
30.5641 100.842 13.2052 10.4973 -85.0308 10.5888 -173.943 13.1009 93.1339 -13.3313 2.36736 -0.863023 66.9445 1.68896 -4.87825 17.8947 -9.27978 8.42677 174.184 8.07613 91.6612 -6.52307 0.954695 2.47544 64.1567 -1.41537 1.56522 25.8013 0.394986 3.48342 0.398125 6.49226 -90.1122 13.8911 0.734432 -0.324445 2.22028 0.719441 -0.356465 -20.3165 0.797979 -0.0887087 -0.303883 0.797983 -0.088715 102.216 16.7585 -82.9312 18.725 46.4175 -66.1268 6.46179 38.3797 -34.2558 12.5481 -1.2805 -15.9571 -77.8107 0.179696 96.5594 -21.1889 -37.9275 -97.6665 -31.7801 -61.1634 -43.9274 -16.1154 -0.0623647 -4.64508 18.6231 -3.20329 -5.0269 -9.86074 -1.5229 -0.90498 
30.4061 100.802 11.916 15.4466 -84.8489 14.9232 -173.703 14.1851 92.7717 -13.6199 3.02593 -1.55828 66.4971 2.30466 -4.64146 17.9679 -9.33172 8.58832 173.873 10.5419 91.1984 -9.52162 1.63943 2.6324 65.1541 -1.51413 2.2886 23.4997 1.22571 3.94733 0.368686 6.80476 -90.1259 13.2655 0.670921 -0.336289 1.59468 0.655463 -0.365495 -20.9418 0.740965 -0.119096 -0.929151 0.740962 -0.119097 102.256 11.322 -82.1262 40.4251 45.4336 -76.0539 9.26275 16.1417 -53.2788 6.58481 -0.580341 -13.8541 -79.3447 -6.88524 92.1711 -32.0038 -31.3379 -95.0565 -35.749 -35.9792 -55.0388 -13.8315 0.0727124 -5.99688 12.4494 -3.22236 -5.59854 -8.08542 -1.77511 0.374044 
30.3361 100.686 10.4592 13.5081 -84.0507 12.7846 -173.63 16.1651 92.5148 -14.3488 3.24254 -2.01724 66.4107 2.95362 -4.33968 18.1865 -8.72071 7.72418 173.406 13.0447 90.9985 -11.0328 0.57745 3.26932 65.0156 -1.56914 1.71389 23.6301 1.39892 3.17755 0.241148 7.16353 -90.3416 12.5467 0.316479 -0.717126 0.875567 0.284616 -0.730353 -21.6587 0.517367 -0.58885 -1.64607 0.517369 -0.588861 100.822 1.52206 -88.2495 38.044 46.5429 -66.2636 12.9767 0.00676851 -74.8708 2.70243 -0.17125 -9.67862 -81.4162 -17.8159 88.1809 -28.9892 -27.5355 -80.5967 -37.3594 -16.9976 -67.9359 -7.91208 -0.0895392 -4.49387 9.94635 -1.49119 -2.31994 -10.0199 -0.895622 -0.958084 
30.3837 100.252 8.93625 8.49168 -82.2921 7.39729 -173.491 19.7418 91.9506 -16.444 3.59586 -2.72529 68.3243 4.53117 -3.39529 17.9236 -8.78702 7.58934 173.142 17.3893 90.6675 -13.8652 0.26054 3.67608 65.5773 -1.81062 1.34651 25.2445 0.599322 3.57795 0.276506 7.65355 -90.4382 11.5681 0.344883 -0.912662 -0.103074 0.304391 -0.926955 -22.6367 0.603225 -0.766828 -2.62408 0.603222 -0.766831 99.2599 -4.07581 -92.4127 30.8064 42.3512 -46.7451 12.4879 0.814688 -93.7102 -0.345119 -0.020751 -6.69359 -84.1158 -26.7255 84.0027 -20.9896 -21.1799 -65.0382 -32.1019 -7.63093 -78.7732 -7.94479 -0.0702229 -4.76553 9.23329 -1.31 -3.36049 -12.1216 -0.65201 1.37485 
30.5494 99.5839 7.34257 0.00185142 -79.6379 -1.59253 -173.075 24.7345 91.4112 -19.459 2.98019 -3.58699 70.0265 5.6576 -3.13802 18.1417 -8.83942 7.8876 172.738 23.8455 90.4513 -18.6896 -1.08008 4.36793 66.4243 -2.24682 1.29722 25.5764 0.342645 4.01339 0.247739 8.0932 -90.4761 10.6876 0.274099 -0.970297 -0.983659 0.231128 -0.981419 -23.5167 0.553026 -0.843062 -3.50407 0.553025 -0.84308 96.9856 -11.8449 -97.068 23.4356 31.4756 -32.5744 7.93968 -2.79354 -102.121 -1.30571 -0.0285675 -5.44826 -86.5913 -35.1259 81.065 -9.16027 -13.3972 -50.6397 -30.2311 -6.95578 -83.8701 -7.36498 -0.0750127 -4.744 10.4788 -0.456329 -2.94969 -15.1353 0.0486605 1.81263 
30.749 98.6146 5.73394 -5.9667 -76.2068 -7.70522 -171.946 31.5603 91.2702 -24.5323 2.59623 -4.85492 70.3919 5.52706 -3.02308 16.0237 -9.04634 6.27122 172.24 31.3888 90.8992 -24.2048 -3.42122 5.38101 67.5169 -3.25379 0.513571 21.4085 1.81018 4.87717 0.205134 8.57789 -90.5235 9.71776 0.172163 -1.05187 -1.95361 0.125706 -1.05843 -24.4859 0.480314 -0.95151 -4.4733 0.480314 -0.951511 93.9664 -17.7517 -102.84 19.2722 21.149 -25.3389 8.53022 1.8524 -98.5884 -2.06585 -0.0114857 -6.36125 -88.6731 -41.2113 78.8552 -1.26689 -5.59228 -42.2845 -30.1489 -11.047 -81.8126 -8.30713 0.0343397 -6.7784 12.3938 0.349337 -2.14373 -15.5544 0.665051 1.95136 
31.1007 96.896 4.16552 -10.6536 -72.3898 -12.242 -170.156 39.9517 91.3219 -31.8029 3.01753 -6.4456 70.9178 5.56799 -3.38807 16.7806 -9.55626 7.84996 170.348 39.8312 91.8098 -30.9213 -7.62449 7.53841 68.9306 -4.56644 -0.795455 19.4569 2.39747 5.53742 0.280002 9.12668 -90.4921 8.62099 0.34075 -0.995015 -3.0503 0.296623 -1.00906 -25.5834 0.624025 -0.846621 -5.57078 0.624023 -0.846631 92.7486 -20.4611 -104.645 17.2639 10.6481 -27.9278 10.4534 10.3286 -86.7591 -2.03497 0.0087734 -9.703 -89.7839 -41.2568 77.0233 1.29799 0.362257 -42.507 -27.4371 -19.0661 -71.8553 -11.6969 0.466286 -11.3284 14.3245 0.637059 -1.9553 -14.5518 0.959391 1.85681 
31.4265 94.2482 2.55043 -10.9766 -68.0855 -12.327 -166.393 49.9053 90.4607 -40.6722 5.55754 -8.69583 73.9594 7.33711 -2.64553 14.2972 -10.2411 6.70581 165.215 49.5559 94.4098 -38.9357 -12.5216 10.6076 70.6141 -6.36738 -2.44299 18.2085 2.26321 7.38318 0.440758 9.50242 -90.415 7.87097 0.698766 -0.85778 -3.80009 0.660331 -0.887703 -26.3355 0.924249 -0.608126 -6.32282 0.924249 -0.608113 90.9017 -19.1834 -109.595 14.0337 6.3458 -29.8153 7.54741 13.9818 -68.3633 2.14299 -0.260596 -14.9942 -90.4206 -37.5899 74.9434 1.26846 2.32512 -48.5134 -18.6046 -25.0242 -55.0992 -12.7221 0.856888 -14.6857 15.7127 0.372203 -2.68436 -13.1215 0.913134 2.24105 
31.8344 90.5734 1.00675 -6.97781 -64.0593 -9.27861 -159.186 59.9333 84.9218 -49.9933 10.0929 -10.7907 76.8016 9.31244 -1.82386 13.2393 -11.0404 7.05557 155.949 60.1217 99.2134 -48.8026 -17.6708 12.9221 73.1913 -8.85072 -3.69492 16.937 2.41934 8.35207 0.507708 9.81584 -90.3397 7.24449 0.867448 -0.709685 -4.42638 0.835362 -0.747183 -26.9632 1.04062 -0.416165 -6.95057 1.04062 -0.416166 90.4002 -17.813 -111.523 10.0517 4.38765 -33.9412 4.98824 18.0849 -53.8107 4.15464 -0.568573 -17.9601 -90.5415 -34.4111 73.7757 1.15275 1.76973 -56.44 -11.3283 -26.7421 -41.6482 -14.8882 1.33974 -17.361 18.0239 -0.14298 -2.19463 -12.131 0.336493 2.29039 
